<?xml version="1.0" encoding="utf-8"?>
<!-- Generator: Adobe Illustrator 16.0.3, SVG Export Plug-In . SVG Version: 6.00 Build 0)  -->
<!DOCTYPE svg PUBLIC "-//W3C//DTD SVG 1.1//EN" "http://www.w3.org/Graphics/SVG/1.1/DTD/svg11.dtd">
<svg version="1.1" id="Ebene_1" xmlns="http://www.w3.org/2000/svg" xmlns:xlink="http://www.w3.org/1999/xlink" x="0px" y="0px"
	 width="177.625px" height="49.375px" viewBox="-16.875 -15.875 177.625 49.375"
	 enable-background="new -16.875 -15.875 177.625 49.375" xml:space="preserve">
<g>
	<g id="Layer_1">
		
			<linearGradient id="SVGID_1_" gradientUnits="userSpaceOnUse" x1="9.1299" y1="25.1348" x2="24.9399" y2="27.8748" gradientTransform="matrix(1 0 0 -1 0.1401 32.0547)">
			<stop  offset="0" style="stop-color:#E12E00"/>
			<stop  offset="1" style="stop-color:#FF8626"/>
		</linearGradient>
		<path fill="url(#SVGID_1_)" d="M6.563,18.827V14.41c-5.425,0-9.839-4.007-9.839-9.286c0-5.268,4.321-9.393,9.839-9.393
			c5.381,0,9.757,4.458,9.757,9.937C16.32,11.164,11.539,16.399,6.563,18.827z M6.563-8.569c-7.816,0-14.166,5.955-14.166,13.579
			s6.35,13.817,14.166,13.817v4.746c7.994-3.879,14.058-10.224,14.058-17.849C20.621-1.898,14.624-8.569,6.563-8.569"/>
	</g>
</g>
<g>
	<path fill="#474745" d="M25.839-2.621h8.767v2.658h-5.888v2.658h5.444v2.655h-5.444v5.095h-2.879V-2.621"/>
	<path fill="#474745" d="M35.861-2.621h8.875v2.658h-5.997v2.418h5.666v2.657h-5.666v2.676h6.331v2.657h-9.209V-2.621"/>
	<path fill="#474745" d="M46.564-2.621h8.877v2.658h-5.998v2.418h5.665v2.657h-5.665v2.676h6.33v2.657h-9.209V-2.621"/>
	<path fill="#474745" d="M60.036,7.788h1.494c0.665,0,1.284-0.066,1.856-0.203c0.571-0.135,1.067-0.359,1.485-0.674
		c0.418-0.312,0.747-0.725,0.987-1.236c0.24-0.51,0.361-1.135,0.361-1.873c0-0.64-0.121-1.196-0.361-1.67
		c-0.24-0.474-0.563-0.864-0.968-1.172c-0.407-0.307-0.884-0.538-1.431-0.692c-0.548-0.154-1.123-0.231-1.725-0.231h-1.698V7.788z
		 M57.157-2.621h4.318c1.046,0,2.039,0.118,2.98,0.351c0.941,0.234,1.764,0.612,2.464,1.135c0.702,0.523,1.258,1.203,1.671,2.04
		c0.412,0.837,0.618,1.851,0.618,3.044c0,1.058-0.2,1.991-0.6,2.796c-0.4,0.807-0.938,1.484-1.614,2.031
		c-0.678,0.547-1.459,0.963-2.345,1.244c-0.885,0.285-1.814,0.425-2.787,0.425h-4.705V-2.621"/>
	<path fill="#474745" d="M73.121,8.011h2.582c0.223,0,0.446-0.024,0.674-0.074c0.229-0.051,0.435-0.135,0.619-0.26
		c0.185-0.121,0.336-0.281,0.451-0.479c0.116-0.196,0.176-0.438,0.176-0.721c0-0.308-0.076-0.557-0.231-0.746
		c-0.152-0.192-0.347-0.336-0.58-0.434c-0.233-0.099-0.485-0.166-0.757-0.205c-0.271-0.035-0.523-0.054-0.756-0.054h-2.178V8.011z
		 M73.121,2.602h2.086c0.221,0,0.438-0.024,0.654-0.074c0.215-0.049,0.408-0.129,0.581-0.239c0.172-0.111,0.31-0.258,0.415-0.443
		s0.157-0.406,0.157-0.664c0-0.271-0.058-0.495-0.177-0.674c-0.116-0.179-0.267-0.317-0.451-0.415
		c-0.184-0.099-0.395-0.169-0.627-0.212c-0.234-0.043-0.461-0.065-0.684-0.065h-1.955V2.602z M70.241-2.621h4.872
		c0.565,0,1.135,0.041,1.707,0.12c0.571,0.081,1.086,0.241,1.541,0.48c0.456,0.24,0.825,0.576,1.106,1.006
		c0.285,0.431,0.426,1.003,0.426,1.717c0,0.738-0.205,1.35-0.617,1.836c-0.412,0.486-0.958,0.834-1.634,1.043v0.037
		c0.431,0.061,0.821,0.181,1.171,0.36c0.352,0.178,0.652,0.405,0.904,0.682s0.447,0.599,0.582,0.969
		c0.137,0.369,0.203,0.763,0.203,1.181c0,0.689-0.148,1.265-0.443,1.726c-0.295,0.462-0.676,0.834-1.143,1.117
		c-0.47,0.282-0.995,0.485-1.579,0.61c-0.586,0.123-1.166,0.183-1.744,0.183h-5.352V-2.621"/>
	<path fill="#474745" d="M86.684,1.182l-1.588,4.06h3.193L86.684,1.182z M85.578-2.621h2.381l5.682,13.066h-3.248l-1.125-2.769
		h-5.074l-1.09,2.769H79.93L85.578-2.621"/>
	<path fill="#474745" d="M102.576,0.775c-0.285-0.344-0.633-0.609-1.043-0.793c-0.414-0.185-0.891-0.277-1.432-0.277
		c-0.543,0-1.043,0.105-1.504,0.314c-0.463,0.209-0.863,0.502-1.201,0.876c-0.338,0.376-0.602,0.821-0.793,1.338
		c-0.191,0.517-0.285,1.077-0.285,1.68c0,0.615,0.094,1.178,0.285,1.688c0.191,0.512,0.453,0.955,0.785,1.33
		s0.723,0.668,1.172,0.877s0.932,0.313,1.449,0.313c0.59,0,1.113-0.124,1.568-0.37c0.455-0.244,0.83-0.59,1.125-1.033l2.4,1.791
		c-0.555,0.774-1.256,1.346-2.104,1.715c-0.85,0.371-1.725,0.555-2.623,0.555c-1.02,0-1.961-0.16-2.822-0.48
		s-1.605-0.777-2.234-1.375c-0.627-0.597-1.115-1.32-1.467-2.168c-0.35-0.849-0.525-1.797-0.525-2.842
		c0-1.046,0.176-1.994,0.525-2.843c0.352-0.849,0.84-1.571,1.467-2.168c0.629-0.597,1.373-1.055,2.234-1.375
		c0.861-0.32,1.803-0.48,2.822-0.48c0.371,0,0.754,0.034,1.156,0.101c0.396,0.069,0.793,0.176,1.18,0.324s0.76,0.344,1.117,0.591
		c0.355,0.246,0.676,0.547,0.959,0.903L102.576,0.775"/>
	<path fill="#474745" d="M105.857-2.621h2.881v5.426l5.074-5.426h3.766l-5.814,6.073l6.312,6.993h-4.023l-5.314-6.2v6.2h-2.881
		V-2.621"/>
	<path fill="#474745" d="M124.609,0.573c-0.234-0.296-0.551-0.514-0.949-0.655c-0.402-0.142-0.779-0.213-1.137-0.213
		c-0.209,0-0.424,0.025-0.646,0.074c-0.219,0.049-0.43,0.126-0.627,0.231c-0.197,0.104-0.357,0.242-0.479,0.414
		c-0.125,0.173-0.186,0.382-0.186,0.628c0,0.394,0.146,0.695,0.441,0.905c0.297,0.209,0.668,0.387,1.117,0.534
		c0.451,0.149,0.934,0.296,1.449,0.444c0.518,0.147,1,0.356,1.449,0.627s0.82,0.634,1.115,1.089
		c0.297,0.455,0.443,1.064,0.443,1.826c0,0.728-0.135,1.359-0.406,1.901c-0.27,0.542-0.637,0.99-1.098,1.347
		c-0.461,0.358-0.996,0.621-1.605,0.795c-0.609,0.172-1.252,0.258-1.93,0.258c-0.848,0-1.635-0.129-2.361-0.387
		c-0.727-0.26-1.402-0.678-2.029-1.256l2.049-2.252c0.293,0.395,0.666,0.699,1.115,0.914s0.914,0.323,1.393,0.323
		c0.236,0,0.473-0.028,0.711-0.083c0.24-0.056,0.457-0.139,0.646-0.25s0.344-0.253,0.461-0.424c0.117-0.173,0.176-0.375,0.176-0.609
		c0-0.393-0.15-0.705-0.451-0.932c-0.303-0.227-0.68-0.422-1.135-0.581c-0.455-0.16-0.949-0.32-1.477-0.48
		c-0.529-0.159-1.023-0.375-1.477-0.646c-0.455-0.271-0.834-0.627-1.135-1.071c-0.301-0.443-0.453-1.027-0.453-1.753
		c0-0.701,0.139-1.316,0.416-1.845c0.275-0.529,0.646-0.972,1.107-1.329s0.992-0.625,1.596-0.803
		c0.602-0.178,1.225-0.268,1.865-0.268c0.736,0,1.451,0.105,2.139,0.314c0.689,0.21,1.311,0.56,1.865,1.052L124.609,0.573"/>
	<path fill="#474745" d="M130.348-0.074h-3.729v-2.547h10.336v2.547h-3.729v10.519h-2.879V-0.074"/>
	<path fill="#474745" d="M140.369,2.787h1.697c0.26,0,0.531-0.009,0.822-0.028c0.289-0.018,0.549-0.074,0.783-0.166
		c0.234-0.092,0.428-0.237,0.582-0.433c0.154-0.198,0.23-0.474,0.23-0.831c0-0.332-0.066-0.596-0.201-0.793
		c-0.137-0.197-0.309-0.349-0.52-0.453c-0.209-0.104-0.449-0.175-0.717-0.212c-0.273-0.037-0.537-0.055-0.797-0.055h-1.881V2.787z
		 M137.488-2.621h5.059c0.664,0,1.295,0.065,1.891,0.194c0.598,0.129,1.121,0.345,1.57,0.646c0.449,0.302,0.805,0.708,1.07,1.218
		c0.264,0.511,0.396,1.148,0.396,1.91c0,0.923-0.24,1.707-0.721,2.353s-1.18,1.055-2.104,1.228l3.322,5.517h-3.451l-2.73-5.222
		h-1.422v5.222h-2.881V-2.621"/>
	<g>
		<path fill="#767674" d="M28.189,15.754c-0.394,0-0.743,0.087-1.038,0.26c-0.185,0.107-0.349,0.249-0.492,0.422v-2.379h-0.795
			v6.782h0.795v-0.528c0.136,0.163,0.293,0.297,0.472,0.399c0.296,0.171,0.641,0.258,1.022,0.258c0.694,0,1.249-0.238,1.648-0.708
			c0.399-0.464,0.601-1.101,0.601-1.895c0-0.793-0.199-1.433-0.591-1.9C29.413,15.993,28.867,15.754,28.189,15.754z M29.572,18.365
			c0,0.61-0.129,1.082-0.385,1.4c-0.253,0.317-0.607,0.471-1.083,0.471c-0.463,0-0.815-0.157-1.076-0.483
			c-0.263-0.323-0.396-0.791-0.396-1.388c0-0.608,0.13-1.081,0.388-1.404c0.254-0.317,0.609-0.472,1.085-0.472
			c0.473,0,0.827,0.155,1.081,0.473C29.442,17.286,29.572,17.759,29.572,18.365z"/>
		<path fill="#767674" d="M32.729,19.668l-1.438-3.791h-0.849l1.884,4.894l-0.199,0.545c-0.116,0.305-0.224,0.502-0.321,0.589
			c-0.093,0.082-0.219,0.123-0.386,0.123c-0.028,0-0.067-0.004-0.122-0.011c-0.056-0.006-0.134-0.018-0.231-0.032l-0.143-0.021v0.73
			l0.089,0.027c0.063,0.019,0.128,0.031,0.201,0.043c0.063,0.007,0.135,0.011,0.216,0.011c0.347,0,0.632-0.088,0.848-0.261
			c0.213-0.171,0.387-0.445,0.533-0.837l2.151-5.8h-0.83L32.729,19.668z"/>
		<path fill="#767674" d="M40.347,16.972l-0.762-0.191c-0.373-0.096-0.641-0.223-0.794-0.377c-0.147-0.149-0.222-0.357-0.222-0.62
			c0-0.357,0.114-0.626,0.35-0.819c0.24-0.196,0.588-0.295,1.034-0.295c0.474,0,0.845,0.117,1.102,0.348
			c0.256,0.23,0.385,0.552,0.393,0.985l0.002,0.122h0.856l-0.002-0.126c-0.009-0.659-0.222-1.182-0.632-1.555
			c-0.408-0.369-0.977-0.556-1.692-0.556c-0.676,0-1.225,0.171-1.632,0.509c-0.416,0.34-0.627,0.801-0.627,1.368
			c0,0.509,0.141,0.913,0.418,1.2c0.272,0.284,0.745,0.511,1.446,0.689l0.621,0.156c0.586,0.149,0.978,0.315,1.164,0.494
			c0.179,0.172,0.269,0.43,0.269,0.764c0,0.364-0.127,0.642-0.39,0.85c-0.268,0.211-0.646,0.317-1.125,0.317
			c-0.542,0-0.968-0.133-1.265-0.395c-0.294-0.262-0.44-0.623-0.445-1.105l-0.001-0.124h-0.847v0.168
			c0,0.714,0.227,1.274,0.673,1.663c0.442,0.383,1.073,0.577,1.878,0.577c0.722,0,1.301-0.18,1.725-0.533
			c0.427-0.359,0.644-0.856,0.644-1.478c0-0.544-0.167-0.979-0.496-1.291C41.671,17.416,41.119,17.164,40.347,16.972z"/>
		<path fill="#767674" d="M45.604,15.754c-0.401,0-0.75,0.086-1.04,0.257c-0.18,0.108-0.34,0.25-0.482,0.425v-0.56h-0.802v6.862
			h0.802v-2.443c0.145,0.173,0.308,0.315,0.489,0.422c0.286,0.165,0.625,0.25,1.007,0.25c0.691,0,1.244-0.237,1.645-0.705
			c0.395-0.459,0.595-1.097,0.595-1.897c0-0.799-0.198-1.439-0.588-1.901C46.834,15.993,46.287,15.754,45.604,15.754z
			 M46.997,18.365c0,0.613-0.127,1.071-0.387,1.398c-0.257,0.318-0.614,0.473-1.091,0.473c-0.46,0-0.81-0.158-1.068-0.484
			c-0.266-0.333-0.396-0.787-0.396-1.387c0-0.608,0.13-1.081,0.387-1.404c0.251-0.317,0.604-0.472,1.077-0.472
			c0.477,0,0.833,0.155,1.088,0.473C46.866,17.286,46.997,17.759,46.997,18.365z"/>
		<path fill="#767674" d="M50.493,15.754c-0.686,0-1.231,0.238-1.621,0.708c-0.381,0.46-0.575,1.107-0.575,1.92
			c0,0.811,0.188,1.428,0.573,1.887c0.385,0.463,0.925,0.698,1.605,0.698c0.564,0,1.042-0.154,1.417-0.46
			c0.38-0.309,0.604-0.723,0.666-1.231l0.017-0.139h-0.792l-0.016,0.106c-0.047,0.312-0.185,0.56-0.407,0.737
			c-0.226,0.181-0.512,0.272-0.849,0.272c-0.432,0-0.767-0.152-1.022-0.468c-0.239-0.294-0.369-0.689-0.387-1.201h3.525V18.28
			c0-0.783-0.188-1.404-0.561-1.846C51.689,15.983,51.16,15.754,50.493,15.754z M50.483,16.48c0.395,0,0.702,0.132,0.938,0.403
			c0.217,0.25,0.346,0.591,0.384,1.017l-2.687-0.004c0.042-0.415,0.177-0.753,0.404-1.007C49.77,16.614,50.084,16.48,50.483,16.48z"
			/>
		<path fill="#767674" d="M56.587,19.071c-0.052,0.371-0.19,0.66-0.414,0.863c-0.223,0.209-0.495,0.31-0.833,0.31
			c-0.433,0-0.768-0.162-1.025-0.496c-0.264-0.345-0.393-0.805-0.393-1.408c0-0.576,0.131-1.036,0.388-1.367
			c0.254-0.326,0.588-0.484,1.022-0.484c0.33,0,0.599,0.092,0.823,0.282c0.221,0.188,0.349,0.43,0.389,0.743l0.014,0.109h0.764
			l-0.007-0.132c-0.028-0.516-0.229-0.94-0.595-1.259c-0.364-0.317-0.831-0.478-1.388-0.478c-0.685,0-1.234,0.241-1.632,0.716
			c-0.392,0.467-0.591,1.114-0.591,1.92c0,0.781,0.196,1.409,0.583,1.867c0.389,0.466,0.93,0.702,1.605,0.702
			c0.585,0,1.071-0.168,1.444-0.5c0.372-0.331,0.587-0.788,0.641-1.359l0.013-0.136h-0.791L56.587,19.071z"/>
		<path fill="#767674" d="M59.718,20.177c-0.146,0.032-0.254,0.053-0.323,0.062c-0.064,0.009-0.123,0.015-0.173,0.015
			c-0.05,0-0.139-0.007-0.173-0.053C59.038,20.187,59,20.122,59,19.883v-3.314h0.874v-0.692H59v-1.355h-0.794v1.355h-0.643v0.692
			h0.643v3.314c0,0.396,0.065,0.667,0.196,0.824c0.135,0.168,0.361,0.253,0.673,0.253c0.096,0,0.2-0.009,0.329-0.026
			c0.119-0.018,0.246-0.045,0.378-0.082l0.092-0.024l-0.006-0.683L59.718,20.177z"/>
		<path fill="#767674" d="M62.544,15.754c-0.72,0-1.288,0.233-1.688,0.694c-0.396,0.457-0.596,1.102-0.596,1.917
			c0,0.816,0.201,1.457,0.596,1.906c0.4,0.457,0.968,0.688,1.688,0.688c0.725,0,1.297-0.232,1.699-0.691
			c0.397-0.451,0.599-1.091,0.599-1.903c0-0.815-0.202-1.46-0.601-1.917C63.836,15.988,63.266,15.754,62.544,15.754z M62.544,20.236
			c-0.469,0-0.822-0.155-1.08-0.477c-0.26-0.324-0.392-0.794-0.392-1.395c0-0.604,0.132-1.075,0.392-1.4
			c0.256-0.32,0.61-0.476,1.08-0.476c0.477,0,0.833,0.155,1.087,0.473c0.259,0.325,0.39,0.796,0.39,1.403
			c0,0.613-0.127,1.07-0.389,1.398C63.379,20.077,63.013,20.236,62.544,20.236z"/>
		<path fill="#767674" d="M68.893,18.566c-0.225-0.212-0.61-0.384-1.183-0.528l-0.25-0.057c-0.79-0.184-1.19-0.456-1.19-0.809
			c0-0.205,0.079-0.364,0.239-0.489c0.169-0.129,0.403-0.195,0.696-0.195c0.337,0,0.606,0.081,0.8,0.239
			c0.189,0.156,0.292,0.372,0.314,0.661l0.009,0.114h0.805l-0.01-0.133c-0.036-0.503-0.226-0.902-0.563-1.186
			c-0.337-0.287-0.789-0.431-1.344-0.431c-0.509,0-0.932,0.138-1.253,0.411c-0.328,0.277-0.495,0.642-0.495,1.083
			c0,0.387,0.131,0.691,0.388,0.906c0.244,0.21,0.704,0.396,1.428,0.569c0.77,0.188,1.159,0.441,1.159,0.752
			c0,0.226-0.093,0.4-0.285,0.532c-0.204,0.141-0.492,0.211-0.858,0.211c-0.336,0-0.602-0.089-0.813-0.275
			c-0.207-0.18-0.313-0.409-0.327-0.703l-0.006-0.118h-0.793l0.004,0.128c0.016,0.519,0.205,0.94,0.562,1.254
			c0.355,0.308,0.826,0.464,1.4,0.464c0.564,0,1.027-0.136,1.377-0.4c0.36-0.277,0.543-0.64,0.543-1.078
			C69.247,19.099,69.128,18.789,68.893,18.566z"/>
	</g>
</g>
</svg>
